<svg xmlns="http://www.w3.org/2000/svg" xmlns:xlink="http://www.w3.org/1999/xlink" xmlns:inkscape="http://www.inkscape.org/namespaces/inkscape" version="1.1" width="595" height="842" viewBox="0 0 595 842">
<defs>
<clipPath id="clip_1">
<path transform="matrix(.12,0,0,-.12,0,842)" d="M1932.93 .671875H3025.08V7016.672H1932.93Z"/>
</clipPath>
<clipPath id="clip_2">
<path transform="matrix(.12,0,0,-.12,0,842)" d="M1932.93 .671875H3025.08V7016.672H1932.93Z"/>
</clipPath>
<clipPath id="clip_3">
<path transform="matrix(.12,0,0,-.12,0,842)" d="M2660.96 3050.41H2769.59L2769.55 3146.87H2660.94Z"/>
</clipPath>
<clipPath id="clip_4">
<path transform="matrix(.12,0,0,-.12,0,842)" d="M1932.93 .671875H3025.08V7016.672H1932.93Z"/>
</clipPath>
<clipPath id="clip_5">
<path transform="matrix(.12,0,0,-.12,0,842)" d="M2660.99 2830.44C2697.21 2830.76 2733.41 2832.29 2769.63 2831.3L2769.62 2917.32H2660.98Z"/>
</clipPath>
<clipPath id="clip_6">
<path transform="matrix(.12,0,0,-.12,0,842)" d="M1932.93 .671875H3025.08V7016.672H1932.93Z"/>
</clipPath>
<clipPath id="clip_7">
<path transform="matrix(.12,0,0,-.12,0,842)" d="M2339.72 2929.55H2427.5364V3038.175H2339.72Z"/>
</clipPath>
</defs>
<g clip-path="url(#clip_1)">
<path transform="matrix(.12,0,0,-.12,0,842)" d="M2937.67 3645.66 2840.28 3644.45 2742.88 3643.76 2548.1 3643.19 2353.31 3643.75 2255.91 3644.45 2158.52 3645.66 2255.91 3646.86 2353.31 3647.55 2548.1 3648.12 2742.88 3647.55 2840.28 3646.86" fill="#1c2c31"/>
<path transform="matrix(.12,0,0,-.12,0,842)" d="M2267.21 3800.7V3849.53H2281.36V3817.13H2297.66V3845.3H2311.82V3817.13H2330.3V3849.87H2344.45V3800.7" fill="#1c2c31"/>
<path transform="matrix(.12,0,0,-.12,0,842)" d="M2294.25 3895.86V3895.63H2344.45V3879.54H2267.21V3897.34L2314.56 3927.8V3928.03H2267.21V3944.11H2344.45V3928.03" fill="#1c2c31"/>
<path transform="matrix(.12,0,0,-.12,0,842)" d="M2344.45 4007.55V3991.24H2281.36V3968.87H2267.21V4029.8H2281.36V4007.55" fill="#1c2c31"/>
</g>
<g clip-path="url(#clip_2)">
<path transform="matrix(.12,0,0,-.12,0,842)" d="M2290.94 4094.14C2283.52 4094.14 2281.13 4088.89 2281.13 4081.03V4070.64H2301.66V4081.03C2301.66 4089.25 2298.02 4094.14 2290.94 4094.14M2344.45 4097.8 2315.24 4081.14V4070.64H2344.45V4054.33H2267.21V4081.14C2267.21 4101.11 2274.63 4110.46 2289.57 4110.46 2298.13 4110.46 2305.77 4104.87 2309.88 4096.31L2344.45 4116.28" fill="#1c2c31"/>
<path transform="matrix(.12,0,0,-.12,0,842)" d="M2267.21 4140.93V4189.75H2281.36V4157.36H2297.66V4185.54H2311.82V4157.36H2330.3V4190.09H2344.45V4140.93" fill="#1c2c31"/>
<path transform="matrix(.12,0,0,-.12,0,842)" d="M2281.24 4242.92V4236.08H2305.21V4243.27C2305.21 4252.29 2300.76 4257.41 2292.65 4257.41 2283.98 4257.41 2281.24 4251.02 2281.24 4242.92M2318.89 4243.38V4236.08H2344.45V4219.77H2267.21V4243.38C2267.21 4261.3 2273.48 4274.53 2291.96 4274.53 2308.96 4274.53 2318.89 4262.89 2318.89 4243.38" fill="#1c2c31"/>
<path transform="matrix(.12,0,0,-.12,0,842)" d="M2290.94 4339.8C2283.52 4339.8 2281.13 4334.54 2281.13 4326.67V4316.29H2301.66V4326.67C2301.66 4334.89 2298.02 4339.8 2290.94 4339.8M2344.45 4343.45 2315.24 4326.78V4316.29H2344.45V4299.97H2267.21V4326.78C2267.21 4346.75 2274.63 4356.11 2289.57 4356.11 2298.13 4356.11 2305.77 4350.51 2309.88 4341.95L2344.45 4361.92" fill="#1c2c31"/>
<path transform="matrix(.12,0,0,-.12,0,842)" d="M2267.21 4386.57H2344.4522V4402.8786H2267.21Z" fill="#1c2c31"/>
<path transform="matrix(.12,0,0,-.12,0,842)" d="M2283.3 4477.95C2281.02 4472.14 2279.07 4464.83 2279.07 4459.12 2279.07 4452.86 2281.36 4448.06 2287.18 4448.06 2302.46 4448.06 2295.05 4481.49 2322.09 4481.49 2339.43 4481.49 2346.16 4467.91 2346.16 4453.07 2346.16 4445.66 2344.45 4437.9 2341.6 4431.4H2326.65C2330.07 4438.02 2332.46 4446.46 2332.46 4453.19 2332.46 4459.93 2330.07 4464.94 2323.46 4464.94 2307.82 4464.94 2315.13 4431.52 2288.32 4431.52 2271.43 4431.52 2265.5 4444.64 2265.5 4458.89 2265.5 4465.4 2266.76 4472.14 2268.81 4477.95" fill="#1c2c31"/>
<path transform="matrix(.12,0,0,-.12,0,842)" d="M2267.21 4508.64V4557.47H2281.36V4525.08H2297.66V4553.25H2311.82V4525.08H2330.3V4557.81H2344.45V4508.64" fill="#1c2c31"/>
<path transform="matrix(.12,0,0,-.12,0,842)" d="M2409.47 3840.63C2409.47 3823.86 2418.6 3814.16 2436.28 3814.16 2453.05 3814.16 2462.97 3822.38 2462.97 3836.75 2462.97 3841.43 2462.52 3844.62 2462.07 3847.36H2433.21V3863.55H2471.08C2474.73 3855.58 2476.56 3845.76 2476.56 3834.92 2476.56 3813.82 2464.81 3797.27 2437.08 3797.27 2409.93 3797.27 2395.9 3814.05 2395.9 3838.69 2395.9 3847.59 2397.61 3854.55 2400.23 3860.14H2414.5C2411.64 3854.77 2409.47 3847.94 2409.47 3840.63" fill="#1c2c31"/>
<path transform="matrix(.12,0,0,-.12,0,842)" d="M2371.94 3954.61 2390.53 3940V3928.02L2371.94 3937.73ZM2397.61 3909.77V3958.6H2411.76V3926.2H2428.07V3954.38H2442.21V3926.2H2460.69V3958.95H2474.84V3909.77" fill="#1c2c31"/>
<path transform="matrix(.12,0,0,-.12,0,842)" d="M2424.64 4020.79V4020.56H2474.84V4004.47H2397.61V4022.27L2444.96 4052.73V4052.96H2397.61V4069.05H2474.84V4052.96" fill="#1c2c31"/>
<path transform="matrix(.12,0,0,-.12,0,842)" d="M2371.94 4161.46 2390.53 4146.86V4134.88L2371.94 4144.58ZM2397.61 4116.63V4165.45H2411.76V4133.05H2428.07V4161.23H2442.21V4133.05H2460.69V4165.8H2474.84V4116.63" fill="#1c2c31"/>
<path transform="matrix(.12,0,0,-.12,0,842)" d="M2421.34 4251.14C2413.93 4251.14 2411.52 4245.89 2411.52 4238.03V4227.64H2432.06V4238.03C2432.06 4246.24 2428.41 4251.14 2421.34 4251.14M2474.84 4254.8 2445.64 4238.14V4227.64H2474.84V4211.33H2397.61V4238.14C2397.61 4258.11 2405.02 4267.45 2419.97 4267.45 2428.52 4267.45 2436.16 4261.87 2440.27 4253.31L2474.84 4273.27" fill="#1c2c31"/>
<path transform="matrix(.12,0,0,-.12,0,842)" d="M2413.46 4342.3 2444.5 4332.26V4352.8L2413.46 4342.53ZM2474.84 4378.92V4361.81L2458.41 4356.45V4328.61L2474.84 4323.36V4307.05L2397.61 4333.52V4352.45" fill="#1c2c31"/>
<path transform="matrix(.12,0,0,-.12,0,842)" d="M2397.61 4419.78V4436.2H2460.69V4468.95H2474.84V4419.78" fill="#1c2c31"/>
<path transform="matrix(.12,0,0,-.12,0,842)" d="M2397.61 4509.69V4558.52H2411.76V4526.12H2428.07V4554.3H2442.21V4526.12H2460.69V4558.86H2474.84V4509.69" fill="#1c2c31"/>
<path transform="matrix(.12,0,0,-.12,0,842)" d="M2541.91 3824.77V3816.79H2591.21V3824.55C2591.21 3842.11 2584.02 3849.19 2565.99 3849.19 2549.68 3849.19 2541.91 3841.31 2541.91 3824.77M2605.23 3825.45V3800.47H2528V3826.37C2528 3852.04 2541.24 3865.95 2565.65 3865.95 2592.23 3865.95 2605.23 3852.61 2605.23 3825.45" fill="#1c2c31"/>
<path transform="matrix(.12,0,0,-.12,0,842)" d="M2606.95 3914.33C2606.95 3894.82 2597.26 3883.07 2575.92 3883.07H2528V3899.27H2577.4C2588.35 3899.27 2593.26 3905.32 2593.26 3914.89 2593.26 3924.94 2588.35 3930.53 2577.63 3930.53H2528V3946.62H2576.03C2596.22 3946.62 2606.95 3934.52 2606.95 3914.33" fill="#1c2c31"/>
<path transform="matrix(.12,0,0,-.12,0,842)" d="M2571.7 4031.62V4018.74H2591.32V4031.62C2591.32 4039.38 2587.66 4044.06 2581.51 4044.06 2574.66 4044.06 2571.7 4038.81 2571.7 4031.62M2541.8 4027.97V4018.74H2558.23V4028.89C2558.23 4035.73 2554.93 4039.38 2549.79 4039.38 2544.2 4039.38 2541.8 4035.39 2541.8 4027.97M2605.23 4030.14V4002.53H2528V4027.29C2528 4047.14 2534.5 4055.8 2547.28 4055.8 2554.13 4055.8 2561.54 4051.82 2563.48 4043.14H2563.71C2564.52 4052.61 2571.7 4060.61 2581.96 4060.61 2599.19 4060.61 2605.23 4048.29 2605.23 4030.14" fill="#1c2c31"/>
<path transform="matrix(.12,0,0,-.12,0,842)" d="M2543.86 4105.89 2574.89 4095.86V4116.39L2543.86 4106.12ZM2502.33 4114.34 2520.92 4126.2V4114.91L2511.23 4106.46 2520.92 4098.03V4087.07L2502.33 4098.94ZM2605.23 4142.51V4125.4L2588.81 4120.05V4092.2L2605.23 4086.95V4070.64L2528 4097.11V4116.05" fill="#1c2c31"/>
<path transform="matrix(.12,0,0,-.12,0,842)" d="M2605.23 4182.12V4165.8H2542.15V4143.44H2528V4204.37H2542.15V4182.12" fill="#1c2c31"/>
<path transform="matrix(.12,0,0,-.12,0,842)" d="M2528 4218.17H2605.2305V4234.4865H2528Z" fill="#1c2c31"/>
<path transform="matrix(.12,0,0,-.12,0,842)" d="M2605.23 4330.89V4315.14H2580.14L2554.47 4316.17V4315.83L2584.59 4297.8V4288.34L2554.93 4270.54V4270.2L2579.68 4271.22H2605.23V4255.48H2528V4272.36L2564.52 4293.47 2528 4314.69V4330.89" fill="#1c2c31"/>
<path transform="matrix(.12,0,0,-.12,0,842)" d="M2528 4351.89V4400.71H2542.15V4368.32H2558.46V4396.5H2572.61V4368.32H2591.09V4401.05H2605.23V4351.89" fill="#1c2c31"/>
<path transform="matrix(.12,0,0,-.12,0,842)" d="M2555.03 4436.32V4436.09H2605.23V4420H2528.01V4437.8L2575.35 4468.26V4468.5H2528.01V4484.58H2605.23V4468.5" fill="#1c2c31"/>
<path transform="matrix(.12,0,0,-.12,0,842)" d="M2605.23 4537.29V4520.97H2542.15V4498.61H2528V4559.54H2542.15V4537.29" fill="#1c2c31"/>
<path transform="matrix(.12,0,0,-.12,0,842)" d="M2687.53 3820.39V3814.64H2723.07V3820.22C2723.07 3832.89 2717.88 3837.99 2704.88 3837.99 2693.13 3837.99 2687.53 3832.31 2687.53 3820.39M2733.18 3820.88V3802.87H2677.5V3821.55C2677.5 3840.05 2687.04 3850.08 2704.63 3850.08 2723.8 3850.08 2733.18 3840.46 2733.18 3820.88" fill="#007bbf"/>
<path transform="matrix(.12,0,0,-.12,0,842)" d="M2701.1 3882.1V3901.84H2711.3V3882.1H2733.18V3870.33H2677.5V3904.06H2687.69V3882.1" fill="#007bbf"/>
<path transform="matrix(.12,0,0,-.12,0,842)" d="M2707.77 3921.26H2716.977V3942.3109H2707.77Z" fill="#007bbf"/>
<path transform="matrix(.12,0,0,-.12,0,842)" d="M2709 3980.5V3971.2H2723.15V3980.5C2723.15 3986.09 2720.52 3989.45 2716.07 3989.45 2711.13 3989.45 2709 3985.67 2709 3980.5M2687.45 3977.86V3971.2H2699.29V3978.51C2699.29 3983.45 2696.91 3986.09 2693.21 3986.09 2689.18 3986.09 2687.45 3983.2 2687.45 3977.86M2733.18 3979.42V3959.51H2677.5V3977.36C2677.5 3991.68 2682.18 3997.93 2691.39 3997.93 2696.33 3997.93 2701.68 3995.05 2703.07 3988.8H2703.24C2703.82 3995.62 2709 4001.38 2716.4 4001.38 2728.82 4001.38 2733.18 3992.5 2733.18 3979.42" fill="#007bbf"/>
<path transform="matrix(.12,0,0,-.12,0,842)" d="M2688.92 4041.7 2711.3 4034.45V4049.26L2688.92 4041.86ZM2733.18 4068.09V4055.75L2721.33 4051.89V4031.82L2733.18 4028.04V4016.28L2677.5 4035.36V4049.01" fill="#007bbf"/>
<path transform="matrix(.12,0,0,-.12,0,842)" d="M2733.18 4104.3V4092.55H2687.69V4076.42H2677.5V4120.34H2687.69V4104.3" fill="#007bbf"/>
<path transform="matrix(.12,0,0,-.12,0,842)" d="M2677.5 4137.95H2733.1837V4149.716H2677.5Z" fill="#007bbf"/>
<path transform="matrix(.12,0,0,-.12,0,842)" d="M2733.18 4226.87V4215.52H2715.08L2696.57 4216.26V4216.02L2718.29 4203.02V4196.2L2696.91 4183.36V4183.12L2714.75 4183.86H2733.18V4172.5H2677.5V4184.68L2703.82 4199.89 2677.5 4215.2V4226.87" fill="#007bbf"/>
<path transform="matrix(.12,0,0,-.12,0,842)" d="M2677.5 4249.68V4284.88H2687.69V4261.53H2699.46V4281.84H2709.66V4261.53H2722.98V4285.14H2733.18V4249.68" fill="#007bbf"/>
<path transform="matrix(.12,0,0,-.12,0,842)" d="M2696.99 4318.2V4318.05H2733.18V4306.44H2677.5V4319.28L2711.63 4341.23V4341.39H2677.5V4353H2733.18V4341.39" fill="#007bbf"/>
<path transform="matrix(.12,0,0,-.12,0,842)" d="M2733.18 4398.67V4386.9H2687.69V4370.79H2677.5V4414.7H2687.69V4398.67" fill="#007bbf"/>
<path transform="matrix(.12,0,0,-.12,0,842)" d="M2719.69 4427.14H2733.1705V4439.972H2719.69Z" fill="#007bbf"/>
<path transform="matrix(.12,0,0,-.12,0,842)" d="M2709 4483V4473.7H2723.15V4483C2723.15 4488.59 2720.52 4491.95 2716.07 4491.95 2711.13 4491.95 2709 4488.18 2709 4483M2687.45 4480.36V4473.7H2699.29V4481.01C2699.29 4485.95 2696.91 4488.59 2693.21 4488.59 2689.18 4488.59 2687.45 4485.7 2687.45 4480.36M2733.18 4481.92V4462.02H2677.5V4479.86C2677.5 4494.18 2682.18 4500.43 2691.39 4500.43 2696.33 4500.43 2701.68 4497.55 2703.07 4491.3H2703.24C2703.82 4498.13 2709 4503.89 2716.4 4503.89 2728.82 4503.89 2733.18 4495 2733.18 4481.92" fill="#007bbf"/>
<path transform="matrix(.12,0,0,-.12,0,842)" d="M2677.5 4523.64V4558.84H2687.69V4535.48H2699.46V4555.8H2709.66V4535.48H2722.98V4559.09H2733.18V4523.64" fill="#007bbf"/>
<path transform="matrix(.12,0,0,-.12,0,842)" d="M2218.91 3142.42C2218.99 3108.23 2218.95 3154.31 2218.91 3142.42" fill="#3c3c3e"/>
</g>
<g clip-path="url(#clip_3)">
<path transform="matrix(.12,0,0,-.12,0,842)" d="M2660.94 3050.41H2769.588V3052.4998H2660.94Z" fill="#02090c"/>
<path transform="matrix(.12,0,0,-.12,0,842)" d="M2660.94 3052.5H2769.588V3053.5509H2660.94Z" fill="#02090c"/>
<path transform="matrix(.12,0,0,-.12,0,842)" d="M2660.94 3053.55H2769.588V3054.6009H2660.94Z" fill="#02090c"/>
<path transform="matrix(.12,0,0,-.12,0,842)" d="M2660.94 3054.61H2769.588V3055.661H2660.94Z" fill="#02090c"/>
<path transform="matrix(.12,0,0,-.12,0,842)" d="M2660.94 3055.66H2769.588V3056.7069H2660.94Z" fill="#030a0d"/>
<path transform="matrix(.12,0,0,-.12,0,842)" d="M2660.94 3056.7H2769.588V3057.7508H2660.94Z" fill="#020b0d"/>
<path transform="matrix(.12,0,0,-.12,0,842)" d="M2660.94 3057.75H2769.588V3058.8009H2660.94Z" fill="#030a0d"/>
<path transform="matrix(.12,0,0,-.12,0,842)" d="M2660.94 3058.8H2769.588V3059.8509H2660.94Z" fill="#020a0c"/>
<path transform="matrix(.12,0,0,-.12,0,842)" d="M2660.94 3059.86H2769.588V3060.911H2660.94Z" fill="#030a0d"/>
<path transform="matrix(.12,0,0,-.12,0,842)" d="M2660.94 3060.91H2769.588V3061.9569H2660.94Z" fill="#020a0c"/>
<path transform="matrix(.12,0,0,-.12,0,842)" d="M2660.94 3061.95H2769.588V3063.0008H2660.94Z" fill="#030a0d"/>
<path transform="matrix(.12,0,0,-.12,0,842)" d="M2660.94 3063H2769.588V3064.0509H2660.94Z" fill="#030b0d"/>
<path transform="matrix(.12,0,0,-.12,0,842)" d="M2660.94 3064.05H2769.588V3065.1009H2660.94Z" fill="#030b0e"/>
<path transform="matrix(.12,0,0,-.12,0,842)" d="M2660.94 3065.11H2769.588V3066.161H2660.94Z" fill="#030b0e"/>
<path transform="matrix(.12,0,0,-.12,0,842)" d="M2660.94 3066.16H2769.588V3067.2069H2660.94Z" fill="#030d0f"/>
<path transform="matrix(.12,0,0,-.12,0,842)" d="M2660.94 3067.2H2769.588V3068.2586H2660.94Z" fill="#040c0f"/>
<path transform="matrix(.12,0,0,-.12,0,842)" d="M2660.94 3068.25H2769.588V3069.3009H2660.94Z" fill="#030d0f"/>
<path transform="matrix(.12,0,0,-.12,0,842)" d="M2660.94 3069.3H2769.588V3070.3509H2660.94Z" fill="#040d10"/>
<path transform="matrix(.12,0,0,-.12,0,842)" d="M2660.94 3070.35H2769.588V3071.397H2660.94Z" fill="#040d10"/>
<path transform="matrix(.12,0,0,-.12,0,842)" d="M2660.94 3071.39H2769.588V3072.4407H2660.94Z" fill="#040d10"/>
<path transform="matrix(.12,0,0,-.12,0,842)" d="M2660.94 3072.45H2769.588V3073.5008H2660.94Z" fill="#040d10"/>
<path transform="matrix(.12,0,0,-.12,0,842)" d="M2660.94 3073.5H2769.588V3074.5509H2660.94Z" fill="#030d0f"/>
<path transform="matrix(.12,0,0,-.12,0,842)" d="M2660.94 3074.55H2769.588V3075.6009H2660.94Z" fill="#040d11"/>
<path transform="matrix(.12,0,0,-.12,0,842)" d="M2660.94 3075.6H2769.588V3076.647H2660.94Z" fill="#030e10"/>
<path transform="matrix(.12,0,0,-.12,0,842)" d="M2660.94 3076.64H2769.588V3077.6907H2660.94Z" fill="#040e11"/>
<path transform="matrix(.12,0,0,-.12,0,842)" d="M2660.94 3077.7H2769.588V3078.7508H2660.94Z" fill="#040f11"/>
<path transform="matrix(.12,0,0,-.12,0,842)" d="M2660.94 3078.75H2769.588V3079.8009H2660.94Z" fill="#040e12"/>
<path transform="matrix(.12,0,0,-.12,0,842)" d="M2660.94 3079.8H2769.588V3080.8509H2660.94Z" fill="#041012"/>
<path transform="matrix(.12,0,0,-.12,0,842)" d="M2660.94 3080.85H2769.588V3081.897H2660.94Z" fill="#040f13"/>
<path transform="matrix(.12,0,0,-.12,0,842)" d="M2660.94 3081.89H2769.588V3082.9407H2660.94Z" fill="#031113"/>
<path transform="matrix(.12,0,0,-.12,0,842)" d="M2660.94 3082.95H2769.588V3084.0008H2660.94Z" fill="#041013"/>
<path transform="matrix(.12,0,0,-.12,0,842)" d="M2660.94 3084H2769.588V3085.0509H2660.94Z" fill="#041013"/>
<path transform="matrix(.12,0,0,-.12,0,842)" d="M2660.94 3085.05H2769.588V3086.1009H2660.94Z" fill="#031113"/>
<path transform="matrix(.12,0,0,-.12,0,842)" d="M2660.94 3086.09H2769.588V3087.1409H2660.94Z" fill="#041013"/>
<path transform="matrix(.12,0,0,-.12,0,842)" d="M2660.94 3087.14H2769.588V3088.1907H2660.94Z" fill="#041314"/>
<path transform="matrix(.12,0,0,-.12,0,842)" d="M2660.94 3088.19H2769.588V3089.2408H2660.94Z" fill="#051215"/>
<path transform="matrix(.12,0,0,-.12,0,842)" d="M2660.94 3089.24H2769.588V3090.2908H2660.94Z" fill="#051416"/>
<path transform="matrix(.12,0,0,-.12,0,842)" d="M2660.94 3090.29H2769.588V3091.337H2660.94Z" fill="#061417"/>
<path transform="matrix(.12,0,0,-.12,0,842)" d="M2660.94 3091.34H2769.588V3092.3909H2660.94Z" fill="#061417"/>
<path transform="matrix(.12,0,0,-.12,0,842)" d="M2660.94 3092.39H2769.588V3093.4407H2660.94Z" fill="#061517"/>
<path transform="matrix(.12,0,0,-.12,0,842)" d="M2660.94 3093.44H2769.588V3094.4908H2660.94Z" fill="#071518"/>
<path transform="matrix(.12,0,0,-.12,0,842)" d="M2660.94 3094.49H2769.588V3095.5408H2660.94Z" fill="#071719"/>
<path transform="matrix(.12,0,0,-.12,0,842)" d="M2660.94 3095.54H2769.588V3096.5909H2660.94Z" fill="#08171a"/>
<path transform="matrix(.12,0,0,-.12,0,842)" d="M2660.94 3096.59H2769.588V3097.637H2660.94Z" fill="#09161a"/>
<path transform="matrix(.12,0,0,-.12,0,842)" d="M2660.94 3097.64H2769.588V3098.6907H2660.94Z" fill="#08181a"/>
<path transform="matrix(.12,0,0,-.12,0,842)" d="M2660.94 3098.69H2769.588V3099.7408H2660.94Z" fill="#0a181b"/>
<path transform="matrix(.12,0,0,-.12,0,842)" d="M2660.94 3099.74H2769.588V3100.7908H2660.94Z" fill="#0a1a1c"/>
<path transform="matrix(.12,0,0,-.12,0,842)" d="M2660.94 3100.79H2769.588V3101.8409H2660.94Z" fill="#0a1a1e"/>
<path transform="matrix(.12,0,0,-.12,0,842)" d="M2660.94 3101.84H2769.588V3102.887H2660.94Z" fill="#0b1a1e"/>
<path transform="matrix(.12,0,0,-.12,0,842)" d="M2660.94 3102.88H2769.588V3103.9385H2660.94Z" fill="#0b1c20"/>
<path transform="matrix(.12,0,0,-.12,0,842)" d="M2660.94 3103.94H2769.588V3104.9908H2660.94Z" fill="#0c1b20"/>
<path transform="matrix(.12,0,0,-.12,0,842)" d="M2660.94 3104.99H2769.588V3106.0408H2660.94Z" fill="#0c1d21"/>
<path transform="matrix(.12,0,0,-.12,0,842)" d="M2660.94 3106.03H2769.588V3107.077H2660.94Z" fill="#0d1d21"/>
<path transform="matrix(.12,0,0,-.12,0,842)" d="M2660.94 3107.08H2769.588V3108.1309H2660.94Z" fill="#0c1e23"/>
<path transform="matrix(.12,0,0,-.12,0,842)" d="M2660.94 3108.13H2769.588V3109.1807H2660.94Z" fill="#0c1e23"/>
<path transform="matrix(.12,0,0,-.12,0,842)" d="M2660.94 3109.18H2769.588V3110.2308H2660.94Z" fill="#0d1f22"/>
<path transform="matrix(.12,0,0,-.12,0,842)" d="M2660.94 3110.23H2769.588V3111.2808H2660.94Z" fill="#0d2024"/>
<path transform="matrix(.12,0,0,-.12,0,842)" d="M2660.94 3111.28H2769.588V3112.327H2660.94Z" fill="#0f1f24"/>
<path transform="matrix(.12,0,0,-.12,0,842)" d="M2660.94 3112.33H2769.588V3113.3809H2660.94Z" fill="#0e2123"/>
<path transform="matrix(.12,0,0,-.12,0,842)" d="M2660.94 3113.38H2769.588V3114.4307H2660.94Z" fill="#0d2125"/>
<path transform="matrix(.12,0,0,-.12,0,842)" d="M2660.94 3114.43H2769.588V3115.4808H2660.94Z" fill="#0e2225"/>
<path transform="matrix(.12,0,0,-.12,0,842)" d="M2660.94 3115.48H2769.588V3116.5308H2660.94Z" fill="#0d2226"/>
<path transform="matrix(.12,0,0,-.12,0,842)" d="M2660.94 3116.53H2769.588V3117.577H2660.94Z" fill="#0d2226"/>
<path transform="matrix(.12,0,0,-.12,0,842)" d="M2660.94 3117.58H2769.588V3118.6309H2660.94Z" fill="#0f2326"/>
<path transform="matrix(.12,0,0,-.12,0,842)" d="M2660.94 3118.63H2769.588V3119.6807H2660.94Z" fill="#0e2327"/>
<path transform="matrix(.12,0,0,-.12,0,842)" d="M2660.94 3119.68H2769.588V3120.7308H2660.94Z" fill="#0e2327"/>
<path transform="matrix(.12,0,0,-.12,0,842)" d="M2660.94 3120.73H2769.588V3121.7808H2660.94Z" fill="#112429"/>
<path transform="matrix(.12,0,0,-.12,0,842)" d="M2660.94 3121.78H2769.588V3122.827H2660.94Z" fill="#112429"/>
<path transform="matrix(.12,0,0,-.12,0,842)" d="M2660.94 3122.83H2769.588V3123.8809H2660.94Z" fill="#112629"/>
<path transform="matrix(.12,0,0,-.12,0,842)" d="M2660.94 3123.87H2769.588V3124.921H2660.94Z" fill="#14262a"/>
<path transform="matrix(.12,0,0,-.12,0,842)" d="M2660.94 3124.92H2769.588V3125.9786H2660.94Z" fill="#14262a"/>
<path transform="matrix(.12,0,0,-.12,0,842)" d="M2660.94 3125.98H2769.588V3127.0308H2660.94Z" fill="#16282c"/>
<path transform="matrix(.12,0,0,-.12,0,842)" d="M2660.94 3127.02H2769.588V3128.0709H2660.94Z" fill="#16282c"/>
<path transform="matrix(.12,0,0,-.12,0,842)" d="M2660.94 3128.07H2769.588V3129.1209H2660.94Z" fill="#16282c"/>
<path transform="matrix(.12,0,0,-.12,0,842)" d="M2660.94 3129.12H2769.588V3130.171H2660.94Z" fill="#18292e"/>
<path transform="matrix(.12,0,0,-.12,0,842)" d="M2660.94 3130.17H2769.588V3131.2208H2660.94Z" fill="#18292e"/>
<path transform="matrix(.12,0,0,-.12,0,842)" d="M2660.94 3131.22H2769.588V3132.2669H2660.94Z" fill="#192b2e"/>
<path transform="matrix(.12,0,0,-.12,0,842)" d="M2660.94 3132.27H2769.588V3133.3209H2660.94Z" fill="#1b2b2f"/>
<path transform="matrix(.12,0,0,-.12,0,842)" d="M2660.94 3133.32H2769.588V3134.3709H2660.94Z" fill="#1b2b2f"/>
<path transform="matrix(.12,0,0,-.12,0,842)" d="M2660.94 3134.37H2769.588V3135.421H2660.94Z" fill="#1a2c31"/>
<path transform="matrix(.12,0,0,-.12,0,842)" d="M2660.94 3135.42H2769.588V3136.4708H2660.94Z" fill="#1c2c31"/>
<path transform="matrix(.12,0,0,-.12,0,842)" d="M2660.94 3136.47H2769.588V3146.8685H2660.94Z" fill="#1c2c31"/>
</g>
<g clip-path="url(#clip_4)">
<path transform="matrix(.12,0,0,-.12,0,842)" d="M2312.82 3420.41C2221.32 3327.89 2218.87 3179.54 2218.87 3164.45 2218.88 3154.8 2218.9 3147.7 2218.91 3142.42 2218.95 3154.31 2218.99 3108.23 2218.91 3142.42 2218.9 3138.66 2218.88 3129.17 2218.88 3109.49V3074.39 3038.18 2929.55 2893.34C2218.88 2887.7 2218.88 2882.08 2218.88 2876.45V2714.07H2273.19 2715.32 2769.63V2831.3C2733.41 2832.29 2697.21 2830.76 2660.99 2830.44V2822.7H2327.49V2893.34 2929.55 3038.18 3074.39 3163.86C2327.49 3166.73 2328.11 3281.75 2390.35 3344.31 2417.32 3371.42 2452.27 3384.61 2497.26 3384.61 2542.18 3384.61 2576.71 3371.54 2602.84 3344.7 2656.61 3289.42 2661.07 3192.88 2661.07 3169.86 2661.07 3166.95 2660.99 3165.2 2660.94 3164.87V3146.87H2769.55V3163.09C2769.57 3163.75 2769.64 3165.91 2769.64 3169.35 2769.64 3200.16 2764.5 3333.82 2681.2 3419.93 2634.15 3468.57 2572.26 3493.23 2497.26 3493.23 2422.66 3493.23 2360.61 3468.73 2312.82 3420.41" fill="#1c2c31"/>
</g>
<g clip-path="url(#clip_5)">
<path transform="matrix(.12,0,0,-.12,0,842)" d="M2660.98 2830.44H2769.625V2836.1978H2660.98Z" fill="#1c2c31"/>
<path transform="matrix(.12,0,0,-.12,0,842)" d="M2660.98 2836.2H2769.625V2837.1492H2660.98Z" fill="#1c2c31"/>
<path transform="matrix(.12,0,0,-.12,0,842)" d="M2660.98 2837.14H2769.625V2838.093H2660.98Z" fill="#1a2c31"/>
<path transform="matrix(.12,0,0,-.12,0,842)" d="M2660.98 2838.1H2769.625V2839.0494H2660.98Z" fill="#1b2b2f"/>
<path transform="matrix(.12,0,0,-.12,0,842)" d="M2660.98 2839.05H2769.625V2839.9993H2660.98Z" fill="#1b2b2f"/>
<path transform="matrix(.12,0,0,-.12,0,842)" d="M2660.98 2840H2769.625V2840.9415H2660.98Z" fill="#192b2e"/>
<path transform="matrix(.12,0,0,-.12,0,842)" d="M2660.98 2840.94H2769.625V2841.8892H2660.98Z" fill="#18292e"/>
<path transform="matrix(.12,0,0,-.12,0,842)" d="M2660.98 2841.89H2769.625V2842.843H2660.98Z" fill="#18292e"/>
<path transform="matrix(.12,0,0,-.12,0,842)" d="M2660.98 2842.84H2769.625V2843.7894H2660.98Z" fill="#16282c"/>
<path transform="matrix(.12,0,0,-.12,0,842)" d="M2660.98 2843.79H2769.625V2844.7393H2660.98Z" fill="#16282c"/>
<path transform="matrix(.12,0,0,-.12,0,842)" d="M2660.98 2844.74H2769.625V2845.6893H2660.98Z" fill="#16282c"/>
<path transform="matrix(.12,0,0,-.12,0,842)" d="M2660.98 2845.69H2769.625V2846.6314H2660.98Z" fill="#14262a"/>
<path transform="matrix(.12,0,0,-.12,0,842)" d="M2660.98 2846.63H2769.625V2847.579H2660.98Z" fill="#14262a"/>
<path transform="matrix(.12,0,0,-.12,0,842)" d="M2660.98 2847.58H2769.625V2848.5333H2660.98Z" fill="#112629"/>
<path transform="matrix(.12,0,0,-.12,0,842)" d="M2660.98 2848.53H2769.625V2849.4793H2660.98Z" fill="#112429"/>
<path transform="matrix(.12,0,0,-.12,0,842)" d="M2660.98 2849.48H2769.625V2850.4293H2660.98Z" fill="#112429"/>
<path transform="matrix(.12,0,0,-.12,0,842)" d="M2660.98 2850.43H2769.625V2851.3714H2660.98Z" fill="#0e2327"/>
<path transform="matrix(.12,0,0,-.12,0,842)" d="M2660.98 2851.37H2769.625V2852.3194H2660.98Z" fill="#0e2327"/>
<path transform="matrix(.12,0,0,-.12,0,842)" d="M2660.98 2852.32H2769.625V2853.2694H2660.98Z" fill="#0f2326"/>
<path transform="matrix(.12,0,0,-.12,0,842)" d="M2660.98 2853.27H2769.625V2854.2232H2660.98Z" fill="#0d2226"/>
<path transform="matrix(.12,0,0,-.12,0,842)" d="M2660.98 2854.22H2769.625V2855.1693H2660.98Z" fill="#0d2226"/>
<path transform="matrix(.12,0,0,-.12,0,842)" d="M2660.98 2855.17H2769.625V2856.1192H2660.98Z" fill="#0e2225"/>
<path transform="matrix(.12,0,0,-.12,0,842)" d="M2660.98 2856.12H2769.625V2857.0616H2660.98Z" fill="#0d2125"/>
<path transform="matrix(.12,0,0,-.12,0,842)" d="M2660.98 2857.06H2769.625V2858.0093H2660.98Z" fill="#0e2123"/>
<path transform="matrix(.12,0,0,-.12,0,842)" d="M2660.98 2858.01H2769.625V2858.9632H2660.98Z" fill="#0f1f24"/>
<path transform="matrix(.12,0,0,-.12,0,842)" d="M2660.98 2858.96H2769.625V2859.9093H2660.98Z" fill="#0d2024"/>
<path transform="matrix(.12,0,0,-.12,0,842)" d="M2660.98 2859.91H2769.625V2860.8592H2660.98Z" fill="#0d1f22"/>
<path transform="matrix(.12,0,0,-.12,0,842)" d="M2660.98 2860.86H2769.625V2861.8016H2660.98Z" fill="#0c1e23"/>
<path transform="matrix(.12,0,0,-.12,0,842)" d="M2660.98 2861.8H2769.625V2862.7493H2660.98Z" fill="#0c1e23"/>
<path transform="matrix(.12,0,0,-.12,0,842)" d="M2660.98 2862.75H2769.625V2863.6993H2660.98Z" fill="#0d1d21"/>
<path transform="matrix(.12,0,0,-.12,0,842)" d="M2660.98 2863.7H2769.625V2864.653H2660.98Z" fill="#0c1d21"/>
<path transform="matrix(.12,0,0,-.12,0,842)" d="M2660.98 2864.66H2769.625V2865.6092H2660.98Z" fill="#0c1b20"/>
<path transform="matrix(.12,0,0,-.12,0,842)" d="M2660.98 2865.61H2769.625V2866.5516H2660.98Z" fill="#0b1c20"/>
<path transform="matrix(.12,0,0,-.12,0,842)" d="M2660.98 2866.55H2769.625V2867.4993H2660.98Z" fill="#0b1a1e"/>
<path transform="matrix(.12,0,0,-.12,0,842)" d="M2660.98 2867.5H2769.625V2868.4493H2660.98Z" fill="#0a1a1e"/>
<path transform="matrix(.12,0,0,-.12,0,842)" d="M2660.98 2868.45H2769.625V2869.3992H2660.98Z" fill="#0a1a1c"/>
<path transform="matrix(.12,0,0,-.12,0,842)" d="M2660.98 2869.39H2769.625V2870.343H2660.98Z" fill="#0a181b"/>
<path transform="matrix(.12,0,0,-.12,0,842)" d="M2660.98 2870.35H2769.625V2871.2994H2660.98Z" fill="#08181a"/>
<path transform="matrix(.12,0,0,-.12,0,842)" d="M2660.98 2871.3H2769.625V2872.2415H2660.98Z" fill="#09161a"/>
<path transform="matrix(.12,0,0,-.12,0,842)" d="M2660.98 2872.24H2769.625V2873.1893H2660.98Z" fill="#08171a"/>
<path transform="matrix(.12,0,0,-.12,0,842)" d="M2660.98 2873.19H2769.625V2874.1392H2660.98Z" fill="#071719"/>
<path transform="matrix(.12,0,0,-.12,0,842)" d="M2660.98 2874.14H2769.625V2875.089H2660.98Z" fill="#071518"/>
<path transform="matrix(.12,0,0,-.12,0,842)" d="M2660.98 2875.09H2769.625V2876.0433H2660.98Z" fill="#061517"/>
<path transform="matrix(.12,0,0,-.12,0,842)" d="M2660.98 2876.04H2769.625V2876.9815H2660.98Z" fill="#061417"/>
<path transform="matrix(.12,0,0,-.12,0,842)" d="M2660.98 2876.98H2769.625V2877.9293H2660.98Z" fill="#061417"/>
<path transform="matrix(.12,0,0,-.12,0,842)" d="M2660.98 2877.93H2769.625V2878.8792H2660.98Z" fill="#051416"/>
<path transform="matrix(.12,0,0,-.12,0,842)" d="M2660.98 2878.88H2769.625V2879.829H2660.98Z" fill="#051215"/>
<path transform="matrix(.12,0,0,-.12,0,842)" d="M2660.98 2879.83H2769.625V2880.7833H2660.98Z" fill="#041314"/>
<path transform="matrix(.12,0,0,-.12,0,842)" d="M2660.98 2880.78H2769.625V2881.7215H2660.98Z" fill="#041013"/>
<path transform="matrix(.12,0,0,-.12,0,842)" d="M2660.98 2881.72H2769.625V2882.6693H2660.98Z" fill="#031113"/>
<path transform="matrix(.12,0,0,-.12,0,842)" d="M2660.98 2882.67H2769.625V2883.6192H2660.98Z" fill="#041013"/>
<path transform="matrix(.12,0,0,-.12,0,842)" d="M2660.98 2883.62H2769.625V2884.5694H2660.98Z" fill="#041013"/>
<path transform="matrix(.12,0,0,-.12,0,842)" d="M2660.98 2884.57H2769.625V2885.5194H2660.98Z" fill="#031113"/>
<path transform="matrix(.12,0,0,-.12,0,842)" d="M2660.98 2885.52H2769.625V2886.4654H2660.98Z" fill="#040f13"/>
<path transform="matrix(.12,0,0,-.12,0,842)" d="M2660.98 2886.46H2769.625V2887.4093H2660.98Z" fill="#041012"/>
<path transform="matrix(.12,0,0,-.12,0,842)" d="M2660.98 2887.41H2769.625V2888.3592H2660.98Z" fill="#040e12"/>
<path transform="matrix(.12,0,0,-.12,0,842)" d="M2660.98 2888.36H2769.625V2889.3094H2660.98Z" fill="#040f11"/>
<path transform="matrix(.12,0,0,-.12,0,842)" d="M2660.98 2889.31H2769.625V2890.2593H2660.98Z" fill="#040e11"/>
<path transform="matrix(.12,0,0,-.12,0,842)" d="M2660.98 2890.26H2769.625V2891.2093H2660.98Z" fill="#030e10"/>
<path transform="matrix(.12,0,0,-.12,0,842)" d="M2660.98 2891.21H2769.625V2892.1553H2660.98Z" fill="#040d11"/>
<path transform="matrix(.12,0,0,-.12,0,842)" d="M2660.98 2892.16H2769.625V2893.1092H2660.98Z" fill="#030d0f"/>
<path transform="matrix(.12,0,0,-.12,0,842)" d="M2660.98 2893.11H2769.625V2894.0594H2660.98Z" fill="#040d10"/>
<path transform="matrix(.12,0,0,-.12,0,842)" d="M2660.98 2894.05H2769.625V2894.9993H2660.98Z" fill="#040d10"/>
<path transform="matrix(.12,0,0,-.12,0,842)" d="M2660.98 2895H2769.625V2895.9493H2660.98Z" fill="#040d10"/>
<path transform="matrix(.12,0,0,-.12,0,842)" d="M2660.98 2895.95H2769.625V2896.903H2660.98Z" fill="#040d10"/>
<path transform="matrix(.12,0,0,-.12,0,842)" d="M2660.98 2896.91H2769.625V2897.8514H2660.98Z" fill="#030d0f"/>
<path transform="matrix(.12,0,0,-.12,0,842)" d="M2660.98 2897.85H2769.625V2898.7994H2660.98Z" fill="#040c0f"/>
<path transform="matrix(.12,0,0,-.12,0,842)" d="M2660.98 2898.8H2769.625V2899.7493H2660.98Z" fill="#030d0f"/>
<path transform="matrix(.12,0,0,-.12,0,842)" d="M2660.98 2899.75H2769.625V2900.6993H2660.98Z" fill="#030b0e"/>
<path transform="matrix(.12,0,0,-.12,0,842)" d="M2660.98 2900.7H2769.625V2901.6492H2660.98Z" fill="#030b0e"/>
<path transform="matrix(.12,0,0,-.12,0,842)" d="M2660.98 2901.64H2769.625V2902.5853H2660.98Z" fill="#030b0d"/>
<path transform="matrix(.12,0,0,-.12,0,842)" d="M2660.98 2902.59H2769.625V2903.5394H2660.98Z" fill="#030a0d"/>
<path transform="matrix(.12,0,0,-.12,0,842)" d="M2660.98 2903.54H2769.625V2904.4893H2660.98Z" fill="#020a0c"/>
<path transform="matrix(.12,0,0,-.12,0,842)" d="M2660.98 2904.49H2769.625V2905.4393H2660.98Z" fill="#030a0d"/>
<path transform="matrix(.12,0,0,-.12,0,842)" d="M2660.98 2905.44H2769.625V2906.3892H2660.98Z" fill="#020a0c"/>
<path transform="matrix(.12,0,0,-.12,0,842)" d="M2660.98 2906.39H2769.625V2907.3314H2660.98Z" fill="#030a0d"/>
<path transform="matrix(.12,0,0,-.12,0,842)" d="M2660.98 2907.33H2769.625V2908.2833H2660.98Z" fill="#020b0d"/>
<path transform="matrix(.12,0,0,-.12,0,842)" d="M2660.98 2908.28H2769.625V2909.2293H2660.98Z" fill="#030a0d"/>
<path transform="matrix(.12,0,0,-.12,0,842)" d="M2660.98 2909.23H2769.625V2910.1793H2660.98Z" fill="#02090c"/>
<path transform="matrix(.12,0,0,-.12,0,842)" d="M2660.98 2910.18H2769.625V2911.1292H2660.98Z" fill="#02090c"/>
<path transform="matrix(.12,0,0,-.12,0,842)" d="M2660.98 2911.13H2769.625V2912.079H2660.98Z" fill="#02090c"/>
<path transform="matrix(.12,0,0,-.12,0,842)" d="M2660.98 2912.08H2769.625V2917.3223H2660.98Z" fill="#02090c"/>
</g>
<g clip-path="url(#clip_6)">
<path transform="matrix(.12,0,0,-.12,0,842)" d="M2126.88 2929.55H2131.5714V3038.183H2126.88Z" fill="#007bbf"/>
<path transform="matrix(.12,0,0,-.12,0,842)" d="M2131.57 2929.55H2132.2694V3038.183H2131.57Z" fill="#007bbf"/>
<path transform="matrix(.12,0,0,-.12,0,842)" d="M2132.27 2929.55H2132.9615V3038.183H2132.27Z" fill="#007bbe"/>
<path transform="matrix(.12,0,0,-.12,0,842)" d="M2132.96 2929.55H2133.6593V3038.183H2132.96Z" fill="#0079bc"/>
<path transform="matrix(.12,0,0,-.12,0,842)" d="M2133.66 2929.55H2134.3592V3038.183H2133.66Z" fill="#0079bc"/>
<path transform="matrix(.12,0,0,-.12,0,842)" d="M2134.36 2929.55H2135.0555V3038.183H2134.36Z" fill="#0079bb"/>
<path transform="matrix(.12,0,0,-.12,0,842)" d="M2135.05 2929.55H2135.7493V3038.183H2135.05Z" fill="#0078ba"/>
<path transform="matrix(.12,0,0,-.12,0,842)" d="M2135.75 2929.55H2136.4493V3038.183H2135.75Z" fill="#0078b9"/>
<path transform="matrix(.12,0,0,-.12,0,842)" d="M2136.44 2929.55H2137.1392V3038.183H2136.44Z" fill="#0077b9"/>
<path transform="matrix(.12,0,0,-.12,0,842)" d="M2137.14 2929.55H2137.839V3038.183H2137.14Z" fill="#0077b8"/>
<path transform="matrix(.12,0,0,-.12,0,842)" d="M2137.84 2929.55H2138.5316V3038.183H2137.84Z" fill="#0076b7"/>
<path transform="matrix(.12,0,0,-.12,0,842)" d="M2138.53 2929.55H2139.2332V3038.183H2138.53Z" fill="#0076b7"/>
<path transform="matrix(.12,0,0,-.12,0,842)" d="M2139.23 2929.55H2139.9293V3038.183H2139.23Z" fill="#0076b6"/>
<path transform="matrix(.12,0,0,-.12,0,842)" d="M2139.93 2929.55H2140.6214V3038.183H2139.93Z" fill="#0075b6"/>
<path transform="matrix(.12,0,0,-.12,0,842)" d="M2140.63 2929.55H2141.329V3038.183H2140.63Z" fill="#0075b5"/>
<path transform="matrix(.12,0,0,-.12,0,842)" d="M2141.32 2929.55H2142.0194V3038.183H2141.32Z" fill="#0075b5"/>
<path transform="matrix(.12,0,0,-.12,0,842)" d="M2142.02 2929.55H2142.7115V3038.183H2142.02Z" fill="#0074b4"/>
<path transform="matrix(.12,0,0,-.12,0,842)" d="M2142.71 2929.55H2143.4093V3038.183H2142.71Z" fill="#0074b3"/>
<path transform="matrix(.12,0,0,-.12,0,842)" d="M2143.41 2929.55H2144.113V3038.183H2143.41Z" fill="#0073b3"/>
<path transform="matrix(.12,0,0,-.12,0,842)" d="M2144.12 2929.55H2144.8116V3038.183H2144.12Z" fill="#0073b3"/>
<path transform="matrix(.12,0,0,-.12,0,842)" d="M2144.81 2929.55H2145.5093V3038.183H2144.81Z" fill="#0073b3"/>
<path transform="matrix(.12,0,0,-.12,0,842)" d="M2145.51 2929.55H2146.2015V3038.183H2145.51Z" fill="#0072b2"/>
<path transform="matrix(.12,0,0,-.12,0,842)" d="M2146.2 2929.55H2146.8992V3038.183H2146.2Z" fill="#0072b1"/>
<path transform="matrix(.12,0,0,-.12,0,842)" d="M2146.9 2929.55H2147.599V3038.183H2146.9Z" fill="#0071b1"/>
<path transform="matrix(.12,0,0,-.12,0,842)" d="M2147.6 2929.55H2148.2916V3038.183H2147.6Z" fill="#0071b0"/>
<path transform="matrix(.12,0,0,-.12,0,842)" d="M2148.29 2929.55H2148.9932V3038.183H2148.29Z" fill="#0071b0"/>
<path transform="matrix(.12,0,0,-.12,0,842)" d="M2148.99 2929.55H2149.6893V3038.183H2148.99Z" fill="#0070af"/>
<path transform="matrix(.12,0,0,-.12,0,842)" d="M2149.69 2929.55H2150.3814V3038.183H2149.69Z" fill="#0070ae"/>
<path transform="matrix(.12,0,0,-.12,0,842)" d="M2150.38 2929.55H2151.079V3038.183H2150.38Z" fill="#006fae"/>
<path transform="matrix(.12,0,0,-.12,0,842)" d="M2151.08 2929.55H2151.7794V3038.183H2151.08Z" fill="#006fad"/>
<path transform="matrix(.12,0,0,-.12,0,842)" d="M2151.78 2929.55H2152.4715V3038.183H2151.78Z" fill="#006fad"/>
<path transform="matrix(.12,0,0,-.12,0,842)" d="M2152.47 2929.55H2153.173V3038.183H2152.47Z" fill="#006eac"/>
<path transform="matrix(.12,0,0,-.12,0,842)" d="M2153.18 2929.55H2153.8792V3038.183H2153.18Z" fill="#006eac"/>
<path transform="matrix(.12,0,0,-.12,0,842)" d="M2153.88 2929.55H2154.5714V3038.183H2153.88Z" fill="#006dab"/>
<path transform="matrix(.12,0,0,-.12,0,842)" d="M2154.57 2929.55H2155.2694V3038.183H2154.57Z" fill="#006daa"/>
<path transform="matrix(.12,0,0,-.12,0,842)" d="M2155.27 2929.55H2155.9693V3038.183H2155.27Z" fill="#006daa"/>
<path transform="matrix(.12,0,0,-.12,0,842)" d="M2155.96 2929.55H2156.6514V3038.183H2155.96Z" fill="#006ca9"/>
<path transform="matrix(.12,0,0,-.12,0,842)" d="M2156.66 2929.55H2157.3592V3038.183H2156.66Z" fill="#006ca9"/>
<path transform="matrix(.12,0,0,-.12,0,842)" d="M2157.36 2929.55H2158.0633V3038.183H2157.36Z" fill="#006ba8"/>
<path transform="matrix(.12,0,0,-.12,0,842)" d="M2158.05 2929.55H2158.7493V3038.183H2158.05Z" fill="#006ba8"/>
<path transform="matrix(.12,0,0,-.12,0,842)" d="M2158.75 2929.55H2159.4493V3038.183H2158.75Z" fill="#006ba7"/>
<path transform="matrix(.12,0,0,-.12,0,842)" d="M2159.45 2929.55H2160.1414V3038.183H2159.45Z" fill="#006aa6"/>
<path transform="matrix(.12,0,0,-.12,0,842)" d="M2160.14 2929.55H2160.839V3038.183H2160.14Z" fill="#006aa6"/>
<path transform="matrix(.12,0,0,-.12,0,842)" d="M2160.84 2929.55H2161.5394V3038.183H2160.84Z" fill="#0069a5"/>
<path transform="matrix(.12,0,0,-.12,0,842)" d="M2161.54 2929.55H2162.2315V3038.183H2161.54Z" fill="#0069a5"/>
<path transform="matrix(.12,0,0,-.12,0,842)" d="M2162.23 2929.55H2162.933V3038.183H2162.23Z" fill="#0069a4"/>
<path transform="matrix(.12,0,0,-.12,0,842)" d="M2162.93 2929.55H2163.6292V3038.183H2162.93Z" fill="#0068a3"/>
<path transform="matrix(.12,0,0,-.12,0,842)" d="M2163.63 2929.55H2164.3214V3038.183H2163.63Z" fill="#0068a3"/>
<path transform="matrix(.12,0,0,-.12,0,842)" d="M2164.32 2929.55H2165.0194V3038.183H2164.32Z" fill="#0067a2"/>
<path transform="matrix(.12,0,0,-.12,0,842)" d="M2165.02 2929.55H2165.7193V3038.183H2165.02Z" fill="#0067a2"/>
<path transform="matrix(.12,0,0,-.12,0,842)" d="M2165.72 2929.55H2166.4114V3038.183H2165.72Z" fill="#0067a1"/>
<path transform="matrix(.12,0,0,-.12,0,842)" d="M2166.41 2929.55H2167.113V3038.183H2166.41Z" fill="#0066a0"/>
<path transform="matrix(.12,0,0,-.12,0,842)" d="M2167.12 2929.55H2167.8194V3038.183H2167.12Z" fill="#0066a0"/>
<path transform="matrix(.12,0,0,-.12,0,842)" d="M2167.82 2929.55H2168.5115V3038.183H2167.82Z" fill="#00659f"/>
<path transform="matrix(.12,0,0,-.12,0,842)" d="M2168.51 2929.55H2169.2093V3038.183H2168.51Z" fill="#00659f"/>
<path transform="matrix(.12,0,0,-.12,0,842)" d="M2169.21 2929.55H2169.9014V3038.183H2169.21Z" fill="#00659e"/>
<path transform="matrix(.12,0,0,-.12,0,842)" d="M2169.9 2929.55H2170.599V3038.183H2169.9Z" fill="#00649e"/>
<path transform="matrix(.12,0,0,-.12,0,842)" d="M2170.6 2929.55H2171.3033V3038.183H2170.6Z" fill="#00649d"/>
<path transform="matrix(.12,0,0,-.12,0,842)" d="M2171.3 2929.55H2171.9915V3038.183H2171.3Z" fill="#00639c"/>
<path transform="matrix(.12,0,0,-.12,0,842)" d="M2171.99 2929.55H2172.6893V3038.183H2171.99Z" fill="#00639c"/>
<path transform="matrix(.12,0,0,-.12,0,842)" d="M2172.69 2929.55H2173.3892V3038.183H2172.69Z" fill="#00639b"/>
<path transform="matrix(.12,0,0,-.12,0,842)" d="M2173.39 2929.55H2174.0814V3038.183H2173.39Z" fill="#00629b"/>
<path transform="matrix(.12,0,0,-.12,0,842)" d="M2174.08 2929.55H2174.7794V3038.183H2174.08Z" fill="#00629a"/>
<path transform="matrix(.12,0,0,-.12,0,842)" d="M2174.78 2929.55H2175.4832V3038.183H2174.78Z" fill="#006199"/>
<path transform="matrix(.12,0,0,-.12,0,842)" d="M2175.48 2929.55H2176.1715V3038.183H2175.48Z" fill="#006199"/>
<path transform="matrix(.12,0,0,-.12,0,842)" d="M2176.18 2929.55H2176.8792V3038.183H2176.18Z" fill="#006098"/>
<path transform="matrix(.12,0,0,-.12,0,842)" d="M2176.88 2929.55H2177.5714V3038.183H2176.88Z" fill="#006098"/>
<path transform="matrix(.12,0,0,-.12,0,842)" d="M2177.57 2929.55H2178.2694V3038.183H2177.57Z" fill="#006097"/>
<path transform="matrix(.12,0,0,-.12,0,842)" d="M2178.27 2929.55H2178.9693V3038.183H2178.27Z" fill="#005f96"/>
<path transform="matrix(.12,0,0,-.12,0,842)" d="M2178.96 2929.55H2179.6514V3038.183H2178.96Z" fill="#005f96"/>
<path transform="matrix(.12,0,0,-.12,0,842)" d="M2179.66 2929.55H2180.3592V3038.183H2179.66Z" fill="#005e95"/>
<path transform="matrix(.12,0,0,-.12,0,842)" d="M2180.36 2929.55H2181.0633V3038.183H2180.36Z" fill="#005e94"/>
<path transform="matrix(.12,0,0,-.12,0,842)" d="M2181.06 2929.55H2181.7515V3038.183H2181.06Z" fill="#005d94"/>
<path transform="matrix(.12,0,0,-.12,0,842)" d="M2181.75 2929.55H2182.4493V3038.183H2181.75Z" fill="#005d93"/>
<path transform="matrix(.12,0,0,-.12,0,842)" d="M2182.45 2929.55H2183.1492V3038.183H2182.45Z" fill="#005b91"/>
<path transform="matrix(.12,0,0,-.12,0,842)" d="M2183.15 2929.55H2183.8414V3038.183H2183.15Z" fill="#005b90"/>
<path transform="matrix(.12,0,0,-.12,0,842)" d="M2183.84 2929.55H2184.5394V3038.183H2183.84Z" fill="#005a90"/>
<path transform="matrix(.12,0,0,-.12,0,842)" d="M2184.54 2929.55H2185.2315V3038.183H2184.54Z" fill="#005a8f"/>
<path transform="matrix(.12,0,0,-.12,0,842)" d="M2185.23 2929.55H2185.933V3038.183H2185.23Z" fill="#00598e"/>
<path transform="matrix(.12,0,0,-.12,0,842)" d="M2185.93 2929.55H2186.6292V3038.183H2185.93Z" fill="#00598d"/>
<path transform="matrix(.12,0,0,-.12,0,842)" d="M2186.63 2929.55H2187.3214V3038.183H2186.63Z" fill="#00598c"/>
<path transform="matrix(.12,0,0,-.12,0,842)" d="M2187.32 2929.55H2188.0194V3038.183H2187.32Z" fill="#00588c"/>
<path transform="matrix(.12,0,0,-.12,0,842)" d="M2188.02 2929.55H2188.7193V3038.183H2188.02Z" fill="#00588b"/>
<path transform="matrix(.12,0,0,-.12,0,842)" d="M2188.72 2929.55H2189.4114V3038.183H2188.72Z" fill="#00588a"/>
<path transform="matrix(.12,0,0,-.12,0,842)" d="M2189.41 2929.55H2190.113V3038.183H2189.41Z" fill="#00588a"/>
<path transform="matrix(.12,0,0,-.12,0,842)" d="M2190.12 2929.55H2190.8194V3038.183H2190.12Z" fill="#005788"/>
<path transform="matrix(.12,0,0,-.12,0,842)" d="M2190.82 2929.55H2191.5115V3038.183H2190.82Z" fill="#005788"/>
<path transform="matrix(.12,0,0,-.12,0,842)" d="M2191.51 2929.55H2192.2093V3038.183H2191.51Z" fill="#005787"/>
<path transform="matrix(.12,0,0,-.12,0,842)" d="M2192.21 2929.55H2192.9014V3038.183H2192.21Z" fill="#005586"/>
<path transform="matrix(.12,0,0,-.12,0,842)" d="M2192.9 2929.55H2193.599V3038.183H2192.9Z" fill="#005586"/>
<path transform="matrix(.12,0,0,-.12,0,842)" d="M2193.6 2929.55H2194.3033V3038.183H2193.6Z" fill="#005485"/>
<path transform="matrix(.12,0,0,-.12,0,842)" d="M2194.3 2929.55H2194.9915V3038.183H2194.3Z" fill="#005485"/>
<path transform="matrix(.12,0,0,-.12,0,842)" d="M2194.99 2929.55H2195.6893V3038.183H2194.99Z" fill="#005383"/>
<path transform="matrix(.12,0,0,-.12,0,842)" d="M2195.69 2929.55H2196.3892V3038.183H2195.69Z" fill="#005382"/>
<path transform="matrix(.12,0,0,-.12,0,842)" d="M2196.39 2929.55H2197.089V3038.183H2196.39Z" fill="#005282"/>
<path transform="matrix(.12,0,0,-.12,0,842)" d="M2197.09 2929.55H2197.7816V3038.183H2197.09Z" fill="#005281"/>
<path transform="matrix(.12,0,0,-.12,0,842)" d="M2197.78 2929.55H2198.4793V3038.183H2197.78Z" fill="#005281"/>
<path transform="matrix(.12,0,0,-.12,0,842)" d="M2198.48 2929.55H2199.183V3038.183H2198.48Z" fill="#00517f"/>
<path transform="matrix(.12,0,0,-.12,0,842)" d="M2199.18 2929.55H2199.8714V3038.183H2199.18Z" fill="#00517e"/>
<path transform="matrix(.12,0,0,-.12,0,842)" d="M2199.88 2929.55H2200.579V3038.183H2199.88Z" fill="#00507e"/>
<path transform="matrix(.12,0,0,-.12,0,842)" d="M2200.57 2929.55H2201.2694V3038.183H2200.57Z" fill="#00507d"/>
<path transform="matrix(.12,0,0,-.12,0,842)" d="M2201.27 2929.55H2201.9693V3038.183H2201.27Z" fill="#004f7c"/>
<path transform="matrix(.12,0,0,-.12,0,842)" d="M2201.96 2929.55H2202.6514V3038.183H2201.96Z" fill="#004f7c"/>
<path transform="matrix(.12,0,0,-.12,0,842)" d="M2202.66 2929.55H2206.6365V3038.175H2202.66Z" fill="#004f7c"/>
<path transform="matrix(.12,0,0,-.12,0,842)" d="M2114.85 3344.83 2006.22 3373.57V2929.55H2126.88V3038.18H2114.85" fill="#007bbf"/>
<path transform="matrix(.12,0,0,-.12,0,842)" d="M2439.91 3038.18H2427.54V2929.55H2875.2L2916.46 3038.18H2548.57V3249.04L2439.91 3271.46" fill="#007bbf"/>
</g>
<g clip-path="url(#clip_7)">
<path transform="matrix(.12,0,0,-.12,0,842)" d="M2416.08 2929.55 2414.41 3038.18H2427.54V2929.55Z" fill="#007bbf"/>
<path transform="matrix(.12,0,0,-.12,0,842)" d="M2415.4 2929.55 2413.72 3038.18H2414.41L2416.07 2929.55Z" fill="#007bbf"/>
<path transform="matrix(.12,0,0,-.12,0,842)" d="M2414.71 2929.55 2413.04 3038.18H2413.72L2415.4 2929.55Z" fill="#007bbe"/>
<path transform="matrix(.12,0,0,-.12,0,842)" d="M2414.02 2929.55 2412.36 3038.18H2413.04L2414.71 2929.55Z" fill="#0079bc"/>
<path transform="matrix(.12,0,0,-.12,0,842)" d="M2413.34 2929.55 2411.68 3038.18H2412.36L2414.02 2929.55Z" fill="#0079bc"/>
<path transform="matrix(.12,0,0,-.12,0,842)" d="M2412.66 2929.55 2410.99 3038.18H2411.68L2413.34 2929.55Z" fill="#0079bb"/>
<path transform="matrix(.12,0,0,-.12,0,842)" d="M2411.97 2929.55 2410.31 3038.18H2410.99L2412.66 2929.55Z" fill="#0078ba"/>
<path transform="matrix(.12,0,0,-.12,0,842)" d="M2411.29 2929.55 2409.63 3038.18H2410.31L2411.97 2929.55Z" fill="#0078b9"/>
<path transform="matrix(.12,0,0,-.12,0,842)" d="M2410.61 2929.55 2408.94 3038.18H2409.62L2411.29 2929.55Z" fill="#0077b9"/>
<path transform="matrix(.12,0,0,-.12,0,842)" d="M2409.93 2929.55 2408.26 3038.18H2408.94L2410.61 2929.55Z" fill="#0077b8"/>
<path transform="matrix(.12,0,0,-.12,0,842)" d="M2409.24 2929.55 2407.57 3038.18H2408.25L2409.93 2929.55Z" fill="#0076b7"/>
<path transform="matrix(.12,0,0,-.12,0,842)" d="M2408.56 2929.55 2406.88 3038.18H2407.57L2409.24 2929.55Z" fill="#0076b7"/>
<path transform="matrix(.12,0,0,-.12,0,842)" d="M2407.88 2929.55 2406.2 3038.18H2406.88L2408.56 2929.55Z" fill="#0076b6"/>
<path transform="matrix(.12,0,0,-.12,0,842)" d="M2407.19 2929.55 2405.52 3038.18H2406.2L2407.88 2929.55Z" fill="#0075b6"/>
<path transform="matrix(.12,0,0,-.12,0,842)" d="M2406.51 2929.55 2404.83 3038.18H2405.52L2407.19 2929.55Z" fill="#0075b5"/>
<path transform="matrix(.12,0,0,-.12,0,842)" d="M2405.82 2929.55 2404.15 3038.18H2404.83L2406.51 2929.55Z" fill="#0075b5"/>
<path transform="matrix(.12,0,0,-.12,0,842)" d="M2405.14 2929.55 2403.46 3038.18H2404.15L2405.82 2929.55Z" fill="#0074b4"/>
<path transform="matrix(.12,0,0,-.12,0,842)" d="M2404.46 2929.55 2402.78 3038.18H2403.46L2405.14 2929.55Z" fill="#0074b3"/>
<path transform="matrix(.12,0,0,-.12,0,842)" d="M2403.77 2929.55 2402.1 3038.18H2402.78L2404.46 2929.55Z" fill="#0073b3"/>
<path transform="matrix(.12,0,0,-.12,0,842)" d="M2403.08 2929.55 2401.41 3038.18H2402.1L2403.77 2929.55Z" fill="#0073b3"/>
<path transform="matrix(.12,0,0,-.12,0,842)" d="M2402.4 2929.55 2400.73 3038.18H2401.41L2403.08 2929.55Z" fill="#0073b3"/>
<path transform="matrix(.12,0,0,-.12,0,842)" d="M2401.71 2929.55 2400.05 3038.18H2400.73L2402.4 2929.55Z" fill="#0072b2"/>
<path transform="matrix(.12,0,0,-.12,0,842)" d="M2401.03 2929.55 2399.37 3038.18H2400.05L2401.71 2929.55Z" fill="#0072b1"/>
<path transform="matrix(.12,0,0,-.12,0,842)" d="M2400.35 2929.55 2398.68 3038.18H2399.37L2401.03 2929.55Z" fill="#0071b1"/>
<path transform="matrix(.12,0,0,-.12,0,842)" d="M2399.66 2929.55 2398 3038.18H2398.68L2400.35 2929.55Z" fill="#0071b0"/>
<path transform="matrix(.12,0,0,-.12,0,842)" d="M2398.98 2929.55 2397.32 3038.18H2397.99L2399.66 2929.55Z" fill="#0071b0"/>
<path transform="matrix(.12,0,0,-.12,0,842)" d="M2398.3 2929.55 2396.63 3038.18H2397.31L2398.98 2929.55Z" fill="#0070af"/>
<path transform="matrix(.12,0,0,-.12,0,842)" d="M2397.62 2929.55 2395.94 3038.18H2396.63L2398.3 2929.55Z" fill="#0070ae"/>
<path transform="matrix(.12,0,0,-.12,0,842)" d="M2396.93 2929.55 2395.26 3038.18H2395.94L2397.62 2929.55Z" fill="#006fae"/>
<path transform="matrix(.12,0,0,-.12,0,842)" d="M2396.25 2929.55 2394.57 3038.18H2395.26L2396.93 2929.55Z" fill="#006fad"/>
<path transform="matrix(.12,0,0,-.12,0,842)" d="M2395.57 2929.55 2393.89 3038.18H2394.57L2396.25 2929.55Z" fill="#006fad"/>
<path transform="matrix(.12,0,0,-.12,0,842)" d="M2394.88 2929.55 2393.21 3038.18H2393.89L2395.57 2929.55Z" fill="#006eac"/>
<path transform="matrix(.12,0,0,-.12,0,842)" d="M2394.2 2929.55 2392.52 3038.18H2393.21L2394.88 2929.55Z" fill="#006eac"/>
<path transform="matrix(.12,0,0,-.12,0,842)" d="M2393.51 2929.55 2391.84 3038.18H2392.52L2394.2 2929.55Z" fill="#006dab"/>
<path transform="matrix(.12,0,0,-.12,0,842)" d="M2392.82 2929.55 2391.16 3038.18H2391.84L2393.52 2929.55Z" fill="#006daa"/>
<path transform="matrix(.12,0,0,-.12,0,842)" d="M2392.14 2929.55 2390.47 3038.18H2391.16L2392.82 2929.55Z" fill="#006daa"/>
<path transform="matrix(.12,0,0,-.12,0,842)" d="M2391.46 2929.55 2389.79 3038.18H2390.47L2392.14 2929.55Z" fill="#006ca9"/>
<path transform="matrix(.12,0,0,-.12,0,842)" d="M2390.77 2929.55 2389.11 3038.18H2389.79L2391.46 2929.55Z" fill="#006ca9"/>
<path transform="matrix(.12,0,0,-.12,0,842)" d="M2390.09 2929.55 2388.43 3038.18H2389.11L2390.77 2929.55Z" fill="#006ba8"/>
<path transform="matrix(.12,0,0,-.12,0,842)" d="M2389.41 2929.55 2387.74 3038.18H2388.41L2390.09 2929.55Z" fill="#006ba8"/>
<path transform="matrix(.12,0,0,-.12,0,842)" d="M2388.72 2929.55 2387.06 3038.18H2387.74L2389.41 2929.55Z" fill="#006ba7"/>
<path transform="matrix(.12,0,0,-.12,0,842)" d="M2388.04 2929.55 2386.38 3038.18H2387.05L2388.72 2929.55Z" fill="#006aa6"/>
<path transform="matrix(.12,0,0,-.12,0,842)" d="M2387.36 2929.55 2385.68 3038.18H2386.37L2388.04 2929.55Z" fill="#006aa6"/>
<path transform="matrix(.12,0,0,-.12,0,842)" d="M2386.68 2929.55 2385 3038.18H2385.68L2387.36 2929.55Z" fill="#0069a5"/>
<path transform="matrix(.12,0,0,-.12,0,842)" d="M2385.99 2929.55 2384.32 3038.18H2385L2386.68 2929.55Z" fill="#0069a5"/>
<path transform="matrix(.12,0,0,-.12,0,842)" d="M2385.31 2929.55 2383.63 3038.18H2384.32L2385.99 2929.55Z" fill="#0069a4"/>
<path transform="matrix(.12,0,0,-.12,0,842)" d="M2384.63 2929.55 2382.95 3038.18H2383.63L2385.31 2929.55Z" fill="#0068a3"/>
<path transform="matrix(.12,0,0,-.12,0,842)" d="M2383.94 2929.55 2382.27 3038.18H2382.95L2384.63 2929.55Z" fill="#0068a3"/>
<path transform="matrix(.12,0,0,-.12,0,842)" d="M2383.26 2929.55 2381.58 3038.18H2382.27L2383.94 2929.55Z" fill="#0067a2"/>
<path transform="matrix(.12,0,0,-.12,0,842)" d="M2382.57 2929.55 2380.9 3038.18H2381.58L2383.26 2929.55Z" fill="#0067a2"/>
<path transform="matrix(.12,0,0,-.12,0,842)" d="M2381.88 2929.55 2380.21 3038.18H2380.9L2382.57 2929.55Z" fill="#0067a1"/>
<path transform="matrix(.12,0,0,-.12,0,842)" d="M2381.2 2929.55 2379.53 3038.18H2380.21L2381.88 2929.55Z" fill="#0066a0"/>
<path transform="matrix(.12,0,0,-.12,0,842)" d="M2380.52 2929.55 2378.85 3038.18H2379.53L2381.2 2929.55Z" fill="#0066a0"/>
<path transform="matrix(.12,0,0,-.12,0,842)" d="M2379.83 2929.55 2378.16 3038.18H2378.85L2380.52 2929.55Z" fill="#00659f"/>
<path transform="matrix(.12,0,0,-.12,0,842)" d="M2379.15 2929.55 2377.48 3038.18H2378.16L2379.83 2929.55Z" fill="#00659f"/>
<path transform="matrix(.12,0,0,-.12,0,842)" d="M2378.46 2929.55 2376.79 3038.18H2377.48L2379.15 2929.55Z" fill="#00659e"/>
<path transform="matrix(.12,0,0,-.12,0,842)" d="M2377.78 2929.55 2376.12 3038.18H2376.79L2378.46 2929.55Z" fill="#00649e"/>
<path transform="matrix(.12,0,0,-.12,0,842)" d="M2377.1 2929.55 2375.43 3038.18H2376.11L2377.78 2929.55Z" fill="#00649d"/>
<path transform="matrix(.12,0,0,-.12,0,842)" d="M2376.41 2929.55 2374.74 3038.18H2375.43L2377.1 2929.55Z" fill="#00639c"/>
<path transform="matrix(.12,0,0,-.12,0,842)" d="M2375.73 2929.55 2374.06 3038.18H2374.74L2376.41 2929.55Z" fill="#00639c"/>
<path transform="matrix(.12,0,0,-.12,0,842)" d="M2375.05 2929.55 2373.38 3038.18H2374.06L2375.73 2929.55Z" fill="#00639b"/>
<path transform="matrix(.12,0,0,-.12,0,842)" d="M2374.37 2929.55 2372.69 3038.18H2373.38L2375.05 2929.55Z" fill="#00629b"/>
<path transform="matrix(.12,0,0,-.12,0,842)" d="M2373.68 2929.55 2372.01 3038.18H2372.69L2374.37 2929.55Z" fill="#00629a"/>
<path transform="matrix(.12,0,0,-.12,0,842)" d="M2373 2929.55 2371.32 3038.18H2372.01L2373.68 2929.55Z" fill="#006199"/>
<path transform="matrix(.12,0,0,-.12,0,842)" d="M2372.31 2929.55 2370.64 3038.18H2371.32L2373 2929.55Z" fill="#006199"/>
<path transform="matrix(.12,0,0,-.12,0,842)" d="M2371.63 2929.55 2369.96 3038.18H2370.64L2372.32 2929.55Z" fill="#006098"/>
<path transform="matrix(.12,0,0,-.12,0,842)" d="M2370.94 2929.55 2369.27 3038.18H2369.96L2371.63 2929.55Z" fill="#006098"/>
<path transform="matrix(.12,0,0,-.12,0,842)" d="M2370.26 2929.55 2368.59 3038.18H2369.27L2370.94 2929.55Z" fill="#006097"/>
<path transform="matrix(.12,0,0,-.12,0,842)" d="M2369.57 2929.55 2367.91 3038.18H2368.59L2370.26 2929.55Z" fill="#005f96"/>
<path transform="matrix(.12,0,0,-.12,0,842)" d="M2368.89 2929.55 2367.22 3038.18H2367.91L2369.57 2929.55Z" fill="#005f96"/>
<path transform="matrix(.12,0,0,-.12,0,842)" d="M2368.21 2929.55 2366.54 3038.18H2367.21L2368.89 2929.55Z" fill="#005e95"/>
<path transform="matrix(.12,0,0,-.12,0,842)" d="M2367.52 2929.55 2365.86 3038.18H2366.53L2368.21 2929.55Z" fill="#005e94"/>
<path transform="matrix(.12,0,0,-.12,0,842)" d="M2366.84 2929.55 2365.18 3038.18H2365.85L2367.52 2929.55Z" fill="#005d94"/>
<path transform="matrix(.12,0,0,-.12,0,842)" d="M2366.16 2929.55 2364.48 3038.18H2365.16L2366.84 2929.55Z" fill="#005d93"/>
<path transform="matrix(.12,0,0,-.12,0,842)" d="M2365.47 2929.55 2363.8 3038.18H2364.48L2366.16 2929.55Z" fill="#005b91"/>
<path transform="matrix(.12,0,0,-.12,0,842)" d="M2364.79 2929.55 2363.12 3038.18H2363.8L2365.47 2929.55Z" fill="#005b90"/>
<path transform="matrix(.12,0,0,-.12,0,842)" d="M2364.11 2929.55 2362.43 3038.18H2363.12L2364.79 2929.55Z" fill="#005a90"/>
<path transform="matrix(.12,0,0,-.12,0,842)" d="M2363.43 2929.55 2361.75 3038.18H2362.43L2364.11 2929.55Z" fill="#005a8f"/>
<path transform="matrix(.12,0,0,-.12,0,842)" d="M2362.74 2929.55 2361.07 3038.18H2361.75L2363.43 2929.55Z" fill="#00598e"/>
<path transform="matrix(.12,0,0,-.12,0,842)" d="M2362.06 2929.55 2360.38 3038.18H2361.07L2362.73 2929.55Z" fill="#00598d"/>
<path transform="matrix(.12,0,0,-.12,0,842)" d="M2361.37 2929.55 2359.7 3038.18H2360.38L2362.06 2929.55Z" fill="#00598c"/>
<path transform="matrix(.12,0,0,-.12,0,842)" d="M2360.68 2929.55 2359.02 3038.18H2359.7L2361.38 2929.55Z" fill="#00588c"/>
<path transform="matrix(.12,0,0,-.12,0,842)" d="M2360 2929.55 2358.33 3038.18H2359.02L2360.68 2929.55Z" fill="#00588b"/>
<path transform="matrix(.12,0,0,-.12,0,842)" d="M2359.32 2929.55 2357.65 3038.18H2358.33L2360 2929.55Z" fill="#00588a"/>
<path transform="matrix(.12,0,0,-.12,0,842)" d="M2358.63 2929.55 2356.96 3038.18H2357.65L2359.32 2929.55Z" fill="#00588a"/>
<path transform="matrix(.12,0,0,-.12,0,842)" d="M2357.95 2929.55 2356.28 3038.18H2356.96L2358.63 2929.55Z" fill="#005788"/>
<path transform="matrix(.12,0,0,-.12,0,842)" d="M2357.27 2929.55 2355.59 3038.18H2356.28L2357.95 2929.55Z" fill="#005788"/>
<path transform="matrix(.12,0,0,-.12,0,842)" d="M2356.58 2929.55 2354.91 3038.18H2355.59L2357.27 2929.55Z" fill="#005787"/>
<path transform="matrix(.12,0,0,-.12,0,842)" d="M2355.9 2929.55 2354.22 3038.18H2354.91L2356.58 2929.55Z" fill="#005586"/>
<path transform="matrix(.12,0,0,-.12,0,842)" d="M2355.21 2929.55 2353.54 3038.18H2354.22L2355.9 2929.55Z" fill="#005586"/>
<path transform="matrix(.12,0,0,-.12,0,842)" d="M2354.53 2929.55 2352.86 3038.18H2353.54L2355.21 2929.55Z" fill="#005485"/>
<path transform="matrix(.12,0,0,-.12,0,842)" d="M2353.85 2929.55 2352.18 3038.18H2352.86L2354.53 2929.55Z" fill="#005485"/>
<path transform="matrix(.12,0,0,-.12,0,842)" d="M2353.16 2929.55 2351.49 3038.18H2352.18L2353.85 2929.55Z" fill="#005383"/>
<path transform="matrix(.12,0,0,-.12,0,842)" d="M2352.48 2929.55 2350.81 3038.18H2351.49L2353.16 2929.55Z" fill="#005382"/>
<path transform="matrix(.12,0,0,-.12,0,842)" d="M2351.8 2929.55 2350.13 3038.18H2350.81L2352.47 2929.55Z" fill="#005282"/>
<path transform="matrix(.12,0,0,-.12,0,842)" d="M2351.11 2929.55 2349.44 3038.18H2350.13L2351.8 2929.55Z" fill="#005281"/>
<path transform="matrix(.12,0,0,-.12,0,842)" d="M2350.43 2929.55 2348.76 3038.18H2349.44L2351.12 2929.55Z" fill="#005281"/>
<path transform="matrix(.12,0,0,-.12,0,842)" d="M2349.74 2929.55 2348.07 3038.18H2348.76L2350.43 2929.55Z" fill="#00517f"/>
<path transform="matrix(.12,0,0,-.12,0,842)" d="M2349.06 2929.55 2347.39 3038.18H2348.07L2349.74 2929.55Z" fill="#00517e"/>
<path transform="matrix(.12,0,0,-.12,0,842)" d="M2348.38 2929.55 2346.71 3038.18H2347.39L2349.06 2929.55Z" fill="#00507e"/>
<path transform="matrix(.12,0,0,-.12,0,842)" d="M2347.69 2929.55 2346.02 3038.18H2346.71L2348.38 2929.55Z" fill="#00507d"/>
<path transform="matrix(.12,0,0,-.12,0,842)" d="M2347.01 2929.55 2345.34 3038.18H2346.02L2347.69 2929.55Z" fill="#004f7c"/>
<path transform="matrix(.12,0,0,-.12,0,842)" d="M2346.32 2929.55 2344.66 3038.18H2345.34L2347.01 2929.55Z" fill="#004f7c"/>
<path transform="matrix(.12,0,0,-.12,0,842)" d="M2344.66 3038.18 2346.32 2929.55H2339.72V3038.18Z" fill="#004f7c"/>
</g>
</svg>
